<?xml version="1.0" standalone="no"?>
<!DOCTYPE svg PUBLIC "-//W3C//DTD SVG 20010904//EN"
 "http://www.w3.org/TR/2001/REC-SVG-20010904/DTD/svg10.dtd">
<svg version="1.0" xmlns="http://www.w3.org/2000/svg"
 width="400.000000pt" height="400.000000pt" viewBox="0 0 400.000000 400.000000"
 preserveAspectRatio="xMidYMid meet">
<metadata>
Created by potrace 1.11, written by Peter Selinger 2001-2013
</metadata>
<g transform="translate(0.000000,400.000000) scale(0.100000,-0.100000)"
fill="#000000" stroke="none">
<path d="M1982 3387 c-13 -17 -64 -86 -113 -152 -49 -66 -89 -125 -89 -132 0
-6 -6 -16 -13 -20 -13 -8 -90 -111 -166 -220 -43 -61 -48 -94 -12 -71 13 8 23
8 37 -1 18 -11 18 -12 -1 -10 -36 2 -44 -1 -50 -20 -3 -11 -12 -22 -21 -25
-11 -4 -13 0 -8 22 6 25 5 25 -18 -8 -36 -53 -42 -64 -31 -57 12 8 37 -36 31
-54 -7 -20 22 -47 46 -43 12 3 14 1 6 -2 -17 -7 -40 -34 -40 -46 0 -13 24 -9
58 8 18 9 32 23 32 34 0 9 6 23 14 29 14 12 16 21 16 84 0 17 4 26 10 22 6 -4
19 4 30 17 14 16 18 18 14 6 -4 -13 -1 -18 12 -18 31 0 64 12 64 22 0 5 -8 7
-19 3 -13 -4 -20 0 -24 15 -3 13 -10 18 -21 14 -9 -3 -16 -2 -16 4 0 5 7 12
15 16 8 3 15 2 15 -3 0 -11 70 -45 77 -38 3 3 -4 12 -16 19 -27 16 -27 28 0
28 13 0 18 4 13 12 -4 7 -3 8 5 4 6 -4 10 -15 9 -23 -2 -9 3 -18 10 -20 6 -3
12 0 12 7 0 8 6 8 20 0 27 -14 27 -54 1 -47 -12 3 -22 -1 -26 -11 -4 -11 -9
-12 -17 -4 -7 7 -18 7 -37 -1 -31 -14 -41 -26 -41 -50 0 -15 7 -17 41 -15 23
1 43 8 46 15 8 21 18 15 19 -10 1 -20 -2 -23 -21 -19 -12 2 -26 -1 -29 -7 -4
-5 -13 -8 -20 -5 -8 3 -17 1 -21 -5 -3 -6 1 -11 9 -11 9 0 16 -7 16 -15 0 -8
-4 -15 -10 -15 -5 0 -10 -5 -10 -11 0 -6 6 -9 14 -6 8 3 17 3 19 -1 2 -4 2 -1
0 6 -6 27 18 54 43 49 13 -2 25 1 25 7 1 6 2 16 4 21 1 6 3 16 3 23 1 6 7 12
13 12 5 0 7 -5 3 -11 -4 -7 -1 -10 7 -7 24 8 56 -40 50 -76 -3 -12 28 -56 39
-56 6 0 10 8 10 17 0 14 2 15 13 4 10 -10 8 -16 -10 -28 -30 -20 -29 -31 1
-26 13 3 27 0 30 -6 7 -10 -6 -16 -27 -12 -5 1 -7 -6 -5 -16 2 -10 11 -18 21
-18 10 0 21 -5 25 -11 4 -6 15 -13 25 -17 16 -6 16 -5 1 18 -18 27 -5 35 16
10 7 -8 16 -12 21 -9 13 8 80 -7 74 -17 -3 -4 -12 -6 -19 -3 -14 6 -30 -22
-20 -37 8 -13 -10 -11 -25 4 -11 10 -14 10 -18 0 -7 -19 -31 -16 -42 6 -15 27
-61 17 -53 -12 3 -13 1 -18 -6 -13 -6 3 -13 20 -17 36 -4 17 -11 30 -17 30 -6
0 -6 6 2 15 10 13 9 15 -9 15 -11 0 -21 -5 -21 -11 0 -5 -5 -7 -11 -3 -8 4 -7
9 2 15 7 4 10 11 6 16 -11 10 -27 -17 -27 -47 0 -33 -10 -44 -39 -48 -20 -3
-23 0 -18 17 6 26 -11 39 -20 15 -3 -10 1 -30 10 -46 9 -15 13 -28 9 -28 -4 0
-16 -16 -26 -35 -11 -19 -23 -35 -29 -35 -5 0 -6 -7 -3 -16 9 -23 -3 -37 -20
-23 -11 9 -14 8 -14 -2 0 -8 -16 -22 -35 -31 -28 -14 -35 -15 -45 -3 -9 11
-17 10 -44 -6 -30 -17 -35 -18 -46 -4 -7 8 -20 15 -29 15 -27 1 18 30 46 30
21 0 22 2 11 23 -17 29 -28 37 -55 37 -12 0 -29 10 -37 22 -21 29 -13 35 19
14 36 -23 55 -14 55 26 l0 32 -17 -23 c-15 -23 -17 -23 -23 -5 -4 10 -6 33 -6
49 1 22 6 29 18 27 9 -1 19 2 23 8 8 13 -14 42 -26 34 -5 -3 -9 0 -9 5 0 6 8
11 17 11 13 0 14 3 5 12 -10 10 -17 8 -34 -9 -19 -19 -20 -24 -7 -39 13 -16
12 -16 -8 -4 -12 8 -19 18 -17 22 3 4 1 8 -5 8 -5 0 -12 -4 -16 -10 -4 -6 -15
-6 -31 0 -14 6 -29 8 -34 5 -5 -3 -11 -1 -15 5 -10 16 -48 12 -41 -5 3 -8 -4
-21 -17 -31 -15 -11 -17 -15 -4 -11 19 7 23 -3 6 -20 -18 -18 -1 -50 26 -50
26 0 55 -19 55 -34 0 -5 -7 -9 -15 -9 -22 0 -18 -15 8 -34 20 -15 21 -16 2
-14 -11 2 -24 13 -30 26 -14 31 -30 22 -30 -18 0 -25 -5 -35 -22 -41 -14 -5
-23 -5 -23 1 0 19 -32 10 -37 -10 -3 -11 -9 -17 -15 -14 -5 4 -5 10 0 17 5 7
12 28 16 47 19 101 20 102 42 73 12 -17 13 -16 8 4 -9 32 -32 36 -49 8 -8 -14
-22 -36 -30 -50 -9 -14 -13 -30 -10 -35 3 -5 0 -12 -7 -17 -31 -20 -101 -159
-92 -185 4 -14 3 -18 -5 -13 -7 4 -22 -17 -41 -59 -31 -68 -37 -96 -20 -96 6
0 10 -4 10 -9 0 -5 -8 -8 -17 -7 -12 1 -18 -6 -18 -19 0 -14 7 -20 22 -21 13
-1 29 -6 37 -13 7 -6 20 -9 29 -5 8 3 24 1 35 -5 15 -8 22 -8 26 2 5 9 7 9 12
0 3 -7 23 -13 44 -13 21 0 42 -4 45 -10 3 -5 -1 -10 -10 -10 -12 0 -15 -5 -11
-16 6 -15 0 -16 -38 -11 -40 6 -44 5 -39 -13 3 -11 10 -20 15 -20 5 0 6 -5 3
-10 -4 -6 -11 -7 -18 -3 -16 10 -57 10 -57 0 0 -5 9 -11 20 -14 24 -6 26 -19
4 -31 -9 -5 -15 -12 -15 -15 2 -16 -14 -6 -17 10 -4 20 -27 43 -84 85 -30 23
-37 25 -42 12 -14 -35 -6 -54 23 -60 17 -4 33 -16 39 -29 6 -13 24 -32 39 -41
15 -10 30 -20 33 -22 2 -1 -2 -7 -10 -12 -9 -6 -20 -4 -29 3 -8 7 -38 12 -68
13 l-53 1 0 -41 c0 -31 3 -37 12 -28 17 17 97 15 148 -3 24 -8 45 -13 48 -11
8 9 -10 27 -36 38 -23 9 -24 12 -9 15 19 5 67 -32 67 -51 0 -12 35 -53 72 -82
12 -10 31 -35 41 -54 l17 -35 -6 35 c-4 19 -15 41 -25 48 -11 7 -19 19 -19 25
0 7 -9 19 -19 26 -11 8 -17 21 -13 29 4 11 1 14 -12 9 -9 -4 -15 -3 -12 2 3 5
-1 12 -10 15 -9 4 -14 13 -10 21 4 10 -1 15 -14 15 -22 0 -27 24 -8 36 7 4 16
0 22 -11 6 -10 23 -31 38 -47 16 -16 28 -34 28 -40 0 -17 50 -78 64 -78 18 0
37 -40 38 -78 1 -17 9 -40 18 -50 14 -15 15 -20 3 -31 -8 -7 -13 -25 -11 -39
2 -22 8 -27 33 -29 17 0 34 -2 39 -2 5 -1 4 -7 -2 -14 -17 -20 -4 -51 26 -64
85 -34 93 -36 105 -24 6 6 23 11 38 11 15 0 31 4 34 10 3 5 -2 10 -12 10 -22
0 -73 42 -73 60 0 9 7 8 25 -4 26 -17 45 -14 45 6 0 7 -16 27 -36 45 -26 23
-40 30 -49 23 -14 -12 -65 9 -65 27 0 6 -4 14 -9 18 -5 3 -9 -10 -8 -29 1 -23
6 -32 15 -28 18 6 64 -39 57 -56 -3 -8 4 -25 15 -39 11 -15 19 -27 18 -29 -2
-1 -25 3 -51 10 -54 14 -69 30 -60 65 5 21 3 23 -14 19 -27 -7 -52 34 -34 55
6 8 9 21 6 29 -4 9 6 27 24 43 24 24 28 34 24 62 -4 21 -2 33 6 33 6 0 11 -4
11 -10 0 -5 5 -10 11 -10 6 0 8 9 4 20 -8 24 2 26 26 4 16 -15 17 -14 12 8 -2
12 -8 32 -13 43 -23 55 -22 58 10 53 21 -3 30 0 30 9 0 9 8 11 25 7 16 -4 25
-2 25 6 0 6 5 8 11 4 8 -5 4 -13 -12 -26 -24 -19 -24 -19 -1 -13 13 4 22 2 22
-4 0 -6 7 -11 15 -11 9 0 12 -6 8 -16 -5 -14 -2 -16 20 -10 16 4 27 2 27 -4 0
-18 36 -11 63 13 30 25 35 39 11 30 -14 -5 -15 -3 -6 14 13 24 6 36 -38 59
-20 11 -46 29 -60 42 -13 12 -31 22 -40 22 -8 0 -26 7 -39 16 -13 9 -42 21
-64 26 -23 5 -49 15 -57 22 -14 13 -56 26 -92 29 -19 1 -23 9 -11 20 3 4 11 3
17 -2 6 -5 22 -12 36 -16 l25 -7 -22 17 c-37 26 -26 39 13 16 42 -25 48 -26
41 -7 -3 8 -1 17 6 20 7 2 4 5 -5 5 -11 1 -15 6 -12 15 6 15 38 16 64 2 8 -4
5 2 -8 13 -19 17 -32 19 -68 14 -29 -4 -44 -2 -44 5 0 6 -10 17 -22 24 -13 7
-24 20 -25 28 -1 8 -5 25 -9 38 -8 29 16 30 42 1 17 -18 19 -19 30 -4 11 15
13 14 26 -3 7 -11 23 -22 35 -26 12 -4 31 -18 41 -30 18 -24 90 -67 78 -47 -4
6 -3 11 3 11 5 0 13 -4 16 -10 3 -5 17 -10 30 -10 12 0 25 -7 29 -15 4 -11 -2
-15 -21 -15 -39 0 -16 -18 31 -24 21 -3 46 -12 56 -21 10 -9 21 -15 26 -14 5
1 22 -1 37 -6 21 -6 31 -3 41 10 7 10 18 15 24 11 5 -3 12 -1 14 6 3 8 12 4
26 -10 12 -12 22 -17 22 -11 0 8 5 7 16 -2 13 -10 17 -10 24 0 4 8 16 11 29 6
12 -4 21 -2 21 4 0 6 7 8 15 4 14 -5 14 -8 0 -29 -17 -27 -13 -44 11 -44 18 0
77 -29 85 -42 10 -16 46 1 53 24 3 12 8 19 12 15 4 -3 -1 -18 -10 -31 -20 -32
-20 -40 1 -32 24 10 11 -2 -44 -38 -25 -17 -45 -35 -42 -41 2 -5 6 -9 9 -9 3
1 16 5 30 9 21 7 23 6 12 -7 -7 -9 -30 -18 -51 -22 -40 -6 -60 -31 -41 -50 8
-8 14 -6 21 7 11 18 44 23 54 7 3 -5 1 -10 -4 -10 -6 0 -11 -5 -11 -11 0 -6 6
-9 14 -6 19 7 8 -34 -13 -50 -19 -14 -34 -6 -27 13 4 10 -3 14 -24 14 -16 0
-36 7 -45 16 -14 14 -18 14 -38 2 -12 -8 -34 -18 -49 -22 -16 -3 -28 -13 -28
-21 0 -10 -10 -15 -31 -15 -17 0 -37 -6 -44 -14 -16 -16 -10 -27 11 -19 8 3
14 0 14 -7 0 -6 5 -8 10 -5 6 3 10 1 10 -4 0 -6 7 -11 17 -11 14 0 14 3 -3 22
-17 19 -17 21 -2 15 10 -3 20 -2 23 3 14 23 22 7 12 -25 -7 -23 -16 -35 -29
-35 -10 0 -18 -7 -18 -15 0 -19 4 -19 42 1 30 16 32 15 49 -7 23 -29 24 -40 4
-33 -8 4 -15 2 -15 -3 0 -5 -27 -15 -59 -22 -58 -13 -59 -14 -58 -47 1 -19 -5
-40 -12 -47 -11 -10 -13 -9 -8 6 10 27 -16 31 -63 11 -39 -17 -40 -19 -18 -27
22 -9 22 -9 3 -17 -21 -9 -55 -45 -55 -59 0 -9 34 -21 60 -21 8 0 20 10 25 22
12 28 45 37 45 13 0 -15 2 -16 17 -4 15 13 15 14 0 17 -10 2 -17 9 -17 17 0
14 27 28 40 20 5 -3 20 11 34 32 15 21 26 31 26 22 0 -8 -5 -20 -12 -27 -9 -9
-7 -12 11 -12 15 0 25 7 28 21 3 11 11 18 17 16 19 -8 76 21 76 38 0 8 7 15
15 15 8 0 15 5 15 10 0 6 5 10 11 10 18 0 -54 -79 -83 -91 -37 -15 -36 -30 2
-22 19 3 30 1 30 -6 0 -6 -6 -11 -14 -11 -7 0 -19 -7 -27 -16 -10 -13 -10 -17
2 -24 10 -7 15 -5 17 6 2 9 10 13 17 10 7 -2 21 4 30 14 9 10 31 22 47 25 17
4 33 15 35 24 3 9 18 26 34 39 18 15 27 18 23 8 -4 -11 0 -13 17 -9 19 5 21 3
16 -19 -6 -21 -2 -27 16 -33 12 -4 29 -7 37 -6 10 1 9 -2 -4 -10 -14 -9 -24
-9 -37 0 -38 23 -99 5 -99 -29 0 -17 -49 -54 -79 -60 -13 -3 -26 -10 -28 -16
-5 -15 84 -11 99 4 7 7 9 12 5 12 -20 0 33 41 54 42 13 1 30 6 37 11 8 6 12 5
12 -2 0 -7 6 -9 13 -6 6 4 1 -3 -13 -14 -14 -11 -32 -20 -40 -19 -8 2 -21 -1
-27 -5 -19 -12 -16 -35 5 -33 13 1 16 -5 14 -26 -2 -22 1 -28 17 -28 11 0 23
-4 26 -10 8 -13 45 -13 45 0 0 6 -7 10 -16 10 -8 0 -12 5 -9 10 4 6 11 7 17 4
6 -4 14 0 19 7 6 10 11 11 20 2 14 -14 -17 -62 -41 -63 -9 0 -10 -3 -5 -9 16
-16 107 13 116 36 11 30 33 34 74 14 l36 -17 -25 -12 c-15 -6 -26 -18 -26 -27
0 -17 -16 -20 -25 -5 -4 6 -12 4 -21 -5 -9 -8 -22 -15 -30 -15 -8 0 -14 -4
-14 -8 0 -5 -26 -21 -57 -36 -32 -16 -65 -38 -75 -49 -14 -19 -19 -20 -43 -9
-23 11 -30 10 -44 -2 -21 -19 -67 -30 -83 -20 -16 10 -79 12 -93 3 -27 -17
-121 -30 -227 -31 -77 -1 -136 23 -164 65 -21 31 -63 62 -71 53 -4 -3 2 -15
11 -25 17 -19 19 -53 4 -52 -5 1 -18 1 -31 1 -15 0 -26 9 -35 30 -12 26 -16
28 -37 18 -18 -8 -28 -7 -46 6 -13 9 -32 16 -43 16 -10 0 -25 8 -32 18 -7 9
-14 12 -14 6 -1 -28 134 -126 257 -188 290 -145 662 -130 942 38 202 121 360
310 440 526 60 163 73 377 33 528 -37 135 -118 323 -212 492 -24 41 -52 92
-64 114 -70 127 -142 231 -164 234 -12 2 -22 7 -22 12 0 4 -21 11 -47 14 -71
8 -73 9 -73 17 0 7 22 9 107 11 20 0 8 22 -98 177 -130 190 -200 286 -251 341
-18 19 -32 39 -32 45 -1 5 -21 17 -46 27 -40 15 -43 18 -22 24 13 4 21 12 19
18 -4 12 -6 12 -82 17 l-50 2 57 6 57 6 -32 37 -32 38 -23 -33z m174 -195 c19
-12 26 -49 10 -55 -9 -4 -12 0 -9 12 2 10 -3 25 -12 35 -17 16 -9 22 11 8z
m-31 -72 c-4 -6 7 -13 25 -16 17 -4 35 -14 40 -24 8 -15 3 -18 -41 -24 -57 -8
-79 3 -79 40 0 21 6 25 53 33 5 0 5 -4 2 -9z m-179 -65 c17 -19 27 -35 21 -35
-6 0 -25 16 -43 35 -17 19 -27 35 -21 35 6 0 25 -16 43 -35z m122 -37 c9 -11
11 -18 4 -18 -13 0 -32 32 -31 52 0 9 2 8 6 -2 3 -8 12 -23 21 -32z m115 5
c-7 -2 -19 -2 -25 0 -7 3 -2 5 12 5 14 0 19 -2 13 -5z m-102 -63 c5 0 9 -4 9
-10 0 -14 -13 -12 -36 6 -17 14 -17 15 -1 10 10 -3 23 -6 28 -6z m-51 -20 c0
-5 -2 -10 -4 -10 -3 0 -8 5 -11 10 -3 6 -1 10 4 10 6 0 11 -4 11 -10z m-31
-21 c-16 -10 -23 -4 -14 10 3 6 11 8 17 5 6 -4 5 -9 -3 -15z m-237 -16 c25
-23 23 -30 -12 -30 -21 0 -30 5 -30 17 0 32 15 37 42 13z m108 -11 c0 -5 -6
-17 -14 -28 -12 -15 -17 -17 -27 -6 -11 10 -9 12 7 13 12 0 14 3 5 6 -11 5
-11 7 0 14 18 11 29 11 29 1z m185 -12 c3 -5 2 -10 -4 -10 -5 0 -13 5 -16 10
-3 6 -2 10 4 10 5 0 13 -4 16 -10z m-164 -23 c-6 -8 -8 -17 -4 -20 3 -4 1 -7
-5 -7 -14 0 -14 2 -6 24 3 9 11 16 16 16 7 0 6 -5 -1 -13z m307 -9 c-18 -27
-78 -74 -78 -61 0 5 11 15 24 22 13 7 29 24 35 37 6 13 16 24 22 24 8 0 7 -7
-3 -22z m-194 -13 c6 -16 -3 -19 -28 -9 -22 8 -20 24 3 24 10 0 21 -7 25 -15z
m-63 -5 c28 -16 23 -32 -6 -18 -14 6 -25 15 -25 20 0 11 7 10 31 -2z m103 -43
c7 -6 6 -7 -4 -4 -8 2 -16 12 -17 23 -2 13 -1 15 4 4 3 -8 11 -19 17 -23z m36
23 c0 -5 -7 -10 -16 -10 -8 0 -12 5 -9 10 3 6 10 10 16 10 5 0 9 -4 9 -10z
m-75 -10 c3 -5 -1 -10 -9 -10 -9 0 -16 5 -16 10 0 6 4 10 9 10 6 0 13 -4 16
-10z m420 -40 c3 -5 -1 -10 -9 -10 -8 0 -18 5 -21 10 -3 6 1 10 9 10 8 0 18
-4 21 -10z m-435 -15 c0 -17 -2 -18 -25 -9 -13 5 -14 8 -3 15 19 13 28 11 28
-6z m-100 -30 c-30 -17 -40 -18 -40 -4 0 5 4 8 8 5 4 -2 14 -1 22 5 8 5 20 9
25 8 6 0 -1 -6 -15 -14z m150 7 c0 -5 -13 -21 -30 -35 -39 -35 -38 -47 5 -40
44 7 46 -9 3 -25 -37 -14 -62 0 -54 31 2 11 0 28 -7 38 -16 25 0 37 18 13 11
-14 14 -15 9 -2 -3 10 1 18 13 21 30 8 43 7 43 -1z m-210 -27 c-7 -8 -17 -15
-22 -15 -11 0 14 29 26 30 5 0 3 -7 -4 -15z m429 -16 c40 -40 39 -49 -7 -49
-27 0 -41 6 -50 21 -12 19 -11 20 7 14 19 -6 20 -4 11 19 -13 35 2 33 39 -5z
m107 6 c4 -8 12 -15 20 -15 8 0 14 -9 14 -20 0 -29 -27 -25 -34 5 -4 14 -11
25 -16 25 -6 0 -10 5 -10 10 0 16 20 12 26 -5z m74 -45 c0 -5 11 -10 25 -10
18 0 23 -4 19 -15 -4 -10 -13 -13 -25 -10 -10 3 -27 0 -38 -7 -16 -10 -23 -10
-33 0 -9 9 -6 12 16 12 23 0 26 3 21 20 -4 11 -2 20 4 20 6 0 11 -4 11 -10z
m-261 -35 c23 -35 41 -45 41 -24 0 5 5 7 10 4 7 -4 6 -14 -1 -28 -8 -13 -8
-22 -2 -24 6 -2 19 -10 29 -18 19 -13 19 -14 -1 -29 -18 -13 -21 -13 -29 4 -5
11 -21 20 -40 22 -24 2 -31 8 -32 25 -2 34 -12 53 -29 53 -8 0 -15 2 -15 5 0
7 34 45 40 45 3 0 16 -16 29 -35z m51 11 c0 -3 -4 -8 -10 -11 -5 -3 -10 -1
-10 4 0 6 5 11 10 11 6 0 10 -2 10 -4z m-130 -35 c0 -6 -4 -13 -10 -16 -5 -3
-10 1 -10 9 0 9 5 16 10 16 6 0 10 -4 10 -9z m343 -8 c9 -2 17 -12 17 -21 -1
-15 -3 -14 -16 3 -14 19 -16 19 -25 3 -5 -10 -25 -20 -44 -24 -22 -4 -35 -12
-35 -21 0 -11 -5 -13 -17 -8 -10 4 -26 10 -35 12 -19 6 -25 23 -8 23 6 0 10 7
10 15 0 8 4 15 9 15 5 0 14 -7 21 -15 17 -21 37 -19 43 5 5 20 34 24 80 13z
m-308 -53 c3 -5 1 -10 -4 -10 -6 0 -11 5 -11 10 0 6 2 10 4 10 3 0 8 -4 11
-10z m69 -29 c3 -5 -1 -12 -10 -15 -20 -8 -29 -1 -19 13 8 13 22 14 29 2z
m-59 -11 c3 -5 1 -10 -4 -10 -6 0 -11 5 -11 10 0 6 2 10 4 10 3 0 8 -4 11 -10z
m-745 -30 c0 -5 -2 -10 -4 -10 -3 0 -8 5 -11 10 -3 6 -1 10 4 10 6 0 11 -4 11
-10z m116 -5 c22 -21 14 -69 -11 -74 -19 -3 -19 -2 -4 15 13 16 14 23 3 44 -8
14 -14 19 -14 13 0 -18 -17 -16 -24 2 -7 20 30 20 50 0z m-65 -27 c1 -7 1 -17
0 -22 -1 -5 4 -13 11 -18 7 -4 -2 -5 -22 -2 -45 9 -50 13 -21 21 13 3 20 11
17 19 -3 8 -1 14 4 14 6 0 11 -6 11 -12z m822 -14 c9 -4 17 -11 17 -16 0 -5
-5 -6 -11 -2 -7 4 -10 1 -7 -7 3 -8 12 -13 19 -11 9 2 6 -4 -6 -17 -34 -34
-42 -46 -38 -58 3 -7 10 -11 16 -9 7 1 8 1 3 -2 -4 -2 -2 -9 5 -14 10 -7 8 -8
-7 -4 -15 5 -23 0 -32 -21 l-11 -28 5 32 c4 25 1 34 -16 43 -12 6 -19 17 -17
24 3 7 -4 18 -14 25 -11 6 -17 16 -14 22 4 5 18 1 36 -11 28 -20 41 -16 18 7
-7 7 -6 14 4 24 7 8 12 20 9 28 -3 9 0 11 9 7 8 -3 22 -9 32 -12z m-298 -15
c8 -25 -7 -44 -29 -36 -16 6 -23 28 -8 26 26 -4 34 1 22 16 -8 9 -8 15 -2 15
6 0 14 -9 17 -21z m135 -35 c0 -8 -4 -12 -10 -9 -5 3 -10 10 -10 16 0 5 5 9
10 9 6 0 10 -7 10 -16z m-618 -78 c-3 -57 -1 -65 17 -71 26 -8 29 -38 4 -33
-10 2 -17 10 -15 17 2 8 -4 10 -18 6 -17 -6 -19 -3 -12 17 5 13 7 52 5 88 -3
51 -1 62 9 52 8 -8 11 -35 10 -76z m435 68 c-3 -3 -12 -4 -19 -1 -8 3 -5 6 6
6 11 1 17 -2 13 -5z m414 -30 c5 -14 24 -31 44 -40 37 -15 45 -31 21 -40 -25
-10 -63 25 -78 71 -15 45 -4 53 13 9z m-224 -46 c-3 -8 -6 -5 -6 6 -1 11 2 17
5 13 3 -3 4 -12 1 -19z m-582 -18 c3 -5 1 -10 -4 -10 -6 0 -11 5 -11 10 0 6 2
10 4 10 3 0 8 -4 11 -10z m-80 -30 c3 -5 1 -10 -4 -10 -6 0 -11 5 -11 10 0 6
2 10 4 10 3 0 8 -4 11 -10z m1090 -20 c1 -12 -2 -19 -7 -18 -5 2 -9 7 -9 11 1
4 1 15 1 24 0 23 13 7 15 -17z m-182 0 c7 0 7 -4 -2 -9 -16 -10 -41 -4 -41 11
0 6 7 7 16 4 9 -3 21 -6 27 -6z m-973 -15 c0 -8 -4 -15 -8 -15 -5 0 -9 7 -9
15 0 8 4 15 9 15 4 0 8 -7 8 -15z m817 -17 c-3 -7 -5 -2 -5 12 0 14 2 19 5 13
2 -7 2 -19 0 -25z m-597 7 c35 -3 35 -4 22 -17 -7 -7 -12 -20 -12 -30 0 -10
-3 -18 -7 -17 -18 1 -67 36 -71 49 -5 13 -3 13 11 1 20 -16 23 -1 5 18 -11 12
-9 13 7 6 11 -4 31 -9 45 -10z m75 -5 c0 -7 -5 -15 -10 -17 -6 -2 -11 6 -11
17 0 11 5 19 11 17 5 -2 10 -10 10 -17z m785 10 c0 -5 -4 -10 -10 -10 -5 0
-10 5 -10 10 0 6 5 10 10 10 6 0 10 -4 10 -10z m-1015 -9 c3 -5 1 -12 -5 -16
-5 -3 -10 1 -10 9 0 18 6 21 15 7z m960 -1 c3 -5 1 -10 -4 -10 -6 0 -11 5 -11
10 0 6 2 10 4 10 3 0 8 -4 11 -10z m-990 -10 c-3 -5 -10 -10 -16 -10 -5 0 -9
5 -9 10 0 6 7 10 16 10 8 0 12 -4 9 -10z m-103 -62 c-13 -13 -24 5 -16 27 7
16 8 16 17 0 6 -11 6 -20 -1 -27z m32 -15 c6 21 7 21 23 -8 9 -16 23 -35 32
-42 9 -7 11 -12 4 -13 -6 0 -18 6 -26 14 -12 12 -18 13 -33 2 -11 -7 -26 -13
-34 -14 -8 0 -32 -5 -52 -10 -29 -8 -35 -7 -31 4 3 9 -2 14 -16 14 -12 0 -21
-4 -21 -10 0 -5 -9 -10 -20 -10 -24 0 -25 6 -4 27 8 9 13 22 10 29 -3 7 -1 16
5 19 5 4 6 11 3 17 -5 7 0 9 14 6 12 -4 25 -2 28 3 3 6 29 -3 59 -20 l53 -30
6 22z m406 -37 c0 -3 -4 -8 -10 -11 -5 -3 -10 -1 -10 4 0 6 5 11 10 11 6 0 10
-2 10 -4z m-166 -53 c10 -25 -19 -12 -44 20 l-25 31 32 -19 c18 -10 35 -25 37
-32z m56 38 c0 -4 10 -6 23 -4 12 2 31 -3 42 -11 20 -16 20 -16 -2 -22 -24 -7
-31 -24 -10 -24 6 -1 1 -10 -13 -22 -14 -11 -24 -27 -22 -34 4 -18 2 -17 -36
2 -19 9 -32 23 -32 35 0 23 10 24 36 4 23 -17 34 -19 34 -5 0 6 -6 10 -13 10
-12 0 -34 21 -51 49 -5 8 -3 17 5 22 18 11 39 11 39 0z m-150 -11 c0 -5 -4
-10 -10 -10 -5 0 -10 5 -10 10 0 6 5 10 10 10 6 0 10 -4 10 -10z m991 -7 c13
-15 12 -15 -11 -3 -34 17 -36 20 -18 20 9 0 22 -7 29 -17z m168 -67 c15 -24
27 -34 33 -28 7 7 17 3 29 -9 10 -10 19 -20 19 -22 0 -2 20 -25 44 -51 46 -50
96 -138 96 -169 0 -9 4 -17 9 -17 19 0 47 -105 31 -115 -8 -5 -7 -11 0 -20 7
-8 9 -19 5 -25 -4 -6 1 -22 9 -35 9 -14 12 -25 6 -25 -6 0 -13 6 -16 14 -3 8
-12 12 -20 9 -17 -6 -18 -46 -3 -74 8 -16 7 -25 -8 -41 -23 -26 -51 -40 -85
-44 -24 -3 -28 0 -28 21 0 14 -8 29 -20 35 -22 12 -26 40 -8 58 6 6 8 15 4 19
-4 4 -10 3 -14 -3 -12 -18 -50 -34 -66 -28 -20 8 -57 -19 -71 -52 l-11 -27
-27 42 c-15 22 -32 41 -37 41 -15 0 -12 -7 12 -30 16 -14 18 -20 7 -21 -8 0
-24 -2 -36 -3 -13 -2 -23 1 -23 6 0 4 5 8 10 8 6 0 10 15 10 34 0 19 -4 38
-10 41 -13 8 -13 55 -1 55 5 0 12 9 16 19 3 11 19 24 36 30 17 6 27 6 24 1 -3
-5 7 -12 22 -16 47 -10 59 -16 46 -21 -7 -2 -14 -3 -16 -1 -2 2 -11 -5 -21
-15 -39 -39 26 -55 80 -20 23 15 52 8 71 -16 11 -14 14 -14 23 -1 8 12 10 11
10 -6 0 -11 9 -29 20 -39 19 -18 22 -18 38 -2 13 13 14 21 6 35 -8 12 -8 25
-1 42 l10 25 7 -30 c4 -16 8 -25 9 -18 1 7 8 10 18 6 12 -5 14 -3 7 8 -4 8 -7
22 -6 31 2 12 -2 16 -12 12 -12 -4 -14 4 -13 48 1 84 -57 206 -138 286 -35 34
-68 62 -72 62 -5 0 -20 11 -34 24 -20 19 -25 31 -21 56 4 28 6 30 16 13 6 -11
22 -36 35 -57z m-733 9 c14 -13 13 -15 -5 -15 -12 0 -21 6 -21 15 0 8 3 15 6
15 3 0 12 -7 20 -15z m-189 -27 c-3 -8 -6 -5 -6 6 -1 11 2 17 5 13 3 -3 4 -12
1 -19z m-17 -13 c19 -23 9 -44 -17 -34 -15 6 -20 14 -16 28 6 25 16 26 33 6z
m1100 -15 c0 -5 -2 -10 -4 -10 -3 0 -8 5 -11 10 -3 6 -1 10 4 10 6 0 11 -4 11
-10z m-1670 -10 c0 -5 -7 -7 -15 -4 -8 4 -15 8 -15 10 0 2 7 4 15 4 8 0 15 -4
15 -10z m724 -26 c7 -19 2 -18 -19 6 -16 17 -16 20 -3 15 9 -4 19 -13 22 -21z
m-39 -24 c3 -5 1 -10 -4 -10 -6 0 -11 -7 -11 -17 0 -22 -13 -8 -15 17 -2 21
19 28 30 10z m-450 -30 c-3 -5 -13 -10 -21 -10 -8 0 -14 5 -14 10 0 6 9 10 21
10 11 0 17 -4 14 -10z m781 -31 c10 -16 -17 -29 -31 -16 -10 9 -10 14 -1 19
16 11 24 10 32 -3z m-913 -100 c-6 -6 -7 3 -4 23 4 28 6 29 9 9 2 -13 0 -27
-5 -32z m272 41 c4 -6 -7 -10 -27 -10 -25 0 -29 3 -18 10 19 13 37 13 45 0z
m1080 -13 c0 -26 -18 -25 -22 1 -2 16 1 22 9 20 7 -3 13 -12 13 -21z m-1375
-7 c0 -5 -4 -10 -10 -10 -5 0 -10 5 -10 10 0 6 5 10 10 10 6 0 10 -4 10 -10z
m1245 0 c-27 -12 -35 -12 -35 0 0 6 12 10 28 9 24 0 25 -1 7 -9z m-1284 -53
c-10 -9 -11 -8 -5 6 3 10 9 15 12 12 3 -3 0 -11 -7 -18z m1438 10 c6 -8 8 -17
4 -20 -3 -4 0 -7 8 -7 13 0 15 -13 10 -62 -2 -15 -31 -8 -31 7 0 17 -26 21
-32 5 -4 -13 -68 -31 -68 -19 0 8 23 14 43 10 5 -1 6 6 3 16 -7 22 13 55 21
35 8 -21 22 -3 17 23 -5 27 7 33 25 12z m-991 -18 c3 -8 1 -11 -3 -7 -5 4 -14
3 -21 -3 -7 -6 -19 -7 -25 -3 -9 5 -7 11 7 21 21 15 36 13 42 -8z m878 -25 c5
-18 1 -29 -12 -38 -21 -16 -37 -5 -48 32 -6 17 -3 22 9 22 11 0 15 -5 11 -15
-3 -8 -1 -15 5 -15 6 0 7 -4 4 -10 -3 -5 -2 -10 4 -10 16 0 24 21 12 33 -14
14 -14 27 -1 27 5 0 13 -11 16 -26z m34 5 c0 -5 -4 -9 -10 -9 -5 0 -10 7 -10
16 0 8 5 12 10 9 6 -3 10 -10 10 -16z m-1031 -22 c-42 -26 -64 -46 -71 -67 -3
-8 -6 1 -6 20 1 42 8 57 18 40 6 -10 15 -8 35 9 15 11 35 21 44 21 9 0 1 -10
-20 -23z m720 -36 c-13 -4 -15 -2 -24 29 l-8 25 21 -25 c11 -14 16 -27 11 -29z
m536 -79 c-3 -3 -11 0 -17 6 -9 9 -9 15 0 24 7 7 13 30 14 53 1 29 3 24 5 -19
2 -32 2 -61 -2 -64z m-361 56 c5 -28 11 -38 20 -35 12 5 12 1 0 -21 -8 -15
-14 -34 -14 -43 0 -17 -24 -32 -34 -22 -11 11 -6 23 8 23 8 0 16 7 20 15 3 8
1 15 -5 15 -6 0 -9 8 -8 18 4 28 -11 61 -34 74 -21 11 -21 11 -2 18 31 11 42
2 49 -42z m82 -3 c-22 -17 -36 -19 -36 -7 0 14 12 22 34 22 21 -1 21 -1 2 -15z
m-1013 -100 c-3 -8 -12 -15 -20 -15 -9 0 -13 -6 -10 -15 4 -8 2 -17 -3 -20
-16 -10 -11 29 6 53 16 24 37 21 27 -3z m592 5 c3 -5 -3 -10 -14 -10 -11 0
-23 5 -26 10 -3 6 3 10 14 10 11 0 23 -4 26 -10z m285 -54 c0 -3 -4 -8 -10
-11 -5 -3 -10 -1 -10 4 0 6 5 11 10 11 6 0 10 -2 10 -4z m90 -6 c-19 -13 -30
-13 -30 0 0 6 10 10 23 10 18 0 19 -2 7 -10z m-353 -16 c-3 -3 -12 -4 -19 -1
-8 3 -5 6 6 6 11 1 17 -2 13 -5z m93 -4 c0 -5 -2 -10 -4 -10 -3 0 -8 5 -11 10
-3 6 -1 10 4 10 6 0 11 -4 11 -10z m147 -47 c-3 -10 -5 -2 -5 17 0 19 2 27 5
18 2 -10 2 -26 0 -35z m-267 22 c0 -8 0 -18 1 -22 0 -4 -4 -9 -9 -11 -11 -3
-23 34 -14 42 10 11 22 6 22 -9z m101 -2 c12 -16 12 -17 -2 -6 -18 15 -30 8
-22 -13 3 -8 1 -14 -3 -14 -13 0 -39 18 -34 23 4 4 43 26 46 27 1 0 8 -8 15
-17z m576 -9 c-9 -9 -28 6 -21 18 4 6 10 6 17 -1 6 -6 8 -13 4 -17z m-234 -8
c4 -10 1 -13 -8 -9 -8 3 -12 9 -9 14 7 12 11 11 17 -5z m-142 -69 c-16 -16
-71 -12 -87 6 -8 9 -9 12 -2 7 20 -17 46 -11 53 11 7 20 8 20 26 3 13 -12 16
-21 10 -27z m-331 3 c18 -11 10 -20 -26 -26 -20 -3 -25 -1 -15 5 7 5 10 14 7
20 -9 13 13 14 34 1z m175 -9 c-3 -6 -11 -11 -17 -11 -6 0 -6 6 2 15 14 17 26
13 15 -4z m203 -33 c-7 -13 -12 -27 -13 -32 0 -5 -13 -10 -28 -12 -23 -2 -26
0 -17 11 6 7 7 15 3 17 -4 3 -2 3 4 2 7 -2 17 6 23 16 6 11 17 20 26 20 12 0
13 -4 2 -22z m-248 -12 c0 -2 -9 -6 -20 -9 -11 -3 -20 -1 -20 4 0 5 9 9 20 9
11 0 20 -2 20 -4z m446 -81 c-11 -8 -27 -15 -35 -15 -10 1 -7 6 9 15 33 19 50
18 26 0z m-205 -97 c-8 -21 -25 -25 -26 -5 -1 6 -6 25 -13 40 -18 42 -15 44
17 13 22 -21 28 -33 22 -48z m49 16 c0 -8 -4 -12 -10 -9 -5 3 -10 10 -10 16 0
5 5 9 10 9 6 0 10 -7 10 -16z m-140 -18 c0 -2 -9 -6 -20 -9 -11 -3 -20 -1 -20
4 0 5 9 9 20 9 11 0 20 -2 20 -4z m-855 -206 c-3 -5 -12 -10 -18 -10 -7 0 -6
4 3 10 19 12 23 12 15 0z"/>
<path d="M1215 2060 c-10 -11 -13 -20 -8 -20 13 0 38 29 31 35 -3 3 -13 -4
-23 -15z"/>
<path d="M2543 1508 c-23 -30 -24 -41 -2 -21 12 12 20 25 17 28 -3 3 -10 0
-15 -7z"/>
<path d="M1428 2595 c-35 -47 -12 -88 27 -48 13 13 19 13 25 4 6 -10 9 -10 15
-1 4 6 14 9 22 6 8 -3 11 -1 8 4 -3 6 -12 10 -20 10 -8 0 -24 11 -37 24 l-23
25 -17 -24z"/>
<path d="M1650 2575 c-7 -14 -19 -25 -26 -25 -7 0 -13 -8 -13 -17 1 -10 -2
-29 -6 -43 l-7 -25 27 28 c15 17 32 27 40 23 10 -3 15 1 15 12 0 10 5 23 10
28 7 7 5 16 -8 27 -18 16 -19 16 -32 -8z"/>
<path d="M1830 2591 c0 -5 9 -11 20 -14 24 -6 27 8 4 17 -21 8 -24 8 -24 -3z"/>
<path d="M1847 2553 c-12 -12 -7 -22 8 -17 8 4 15 10 15 15 0 11 -14 12 -23 2z"/>
<path d="M1768 2531 c-10 -10 -18 -23 -18 -30 0 -7 -13 -26 -30 -43 -34 -33
-38 -53 -14 -62 22 -8 33 3 14 14 -8 5 -12 10 -10 12 3 2 16 9 29 16 22 13 23
12 16 -5 -4 -10 -10 -27 -13 -38 -2 -11 -11 -28 -19 -37 -25 -29 21 -10 49 20
18 19 19 24 6 19 -10 -4 -18 -2 -18 3 0 6 7 10 16 10 8 0 12 5 9 10 -13 20 6
50 31 50 14 0 22 4 19 10 -9 14 -42 12 -48 -2 -7 -21 -19 -1 -13 20 4 11 19
23 34 27 25 7 25 8 7 15 -27 11 -28 11 -47 -9z"/>
<path d="M1460 2510 c0 -5 5 -10 10 -10 6 0 10 5 10 10 0 6 -4 10 -10 10 -5 0
-10 -4 -10 -10z"/>
<path d="M1895 2510 c-3 -5 -1 -10 4 -10 6 0 11 5 11 10 0 6 -2 10 -4 10 -3 0
-8 -4 -11 -10z"/>
<path d="M1668 2465 c-3 -27 -1 -32 9 -23 15 12 18 58 4 58 -5 0 -11 -16 -13
-35z"/>
<path d="M1622 2449 c-12 -18 -11 -20 5 -17 10 2 19 11 21 21 5 23 -10 21 -26
-4z"/>
<path d="M1865 2440 c4 -6 11 -8 16 -5 14 9 11 15 -7 15 -8 0 -12 -5 -9 -10z"/>
<path d="M1300 2290 c0 -6 7 -10 15 -10 8 0 15 2 15 4 0 2 -7 6 -15 10 -8 3
-15 1 -15 -4z"/>
<path d="M1497 1934 c6 -15 23 -19 23 -5 0 5 -7 11 -14 14 -10 4 -13 1 -9 -9z"/>
<path d="M1465 1920 c3 -5 8 -10 11 -10 2 0 4 5 4 10 0 6 -5 10 -11 10 -5 0
-7 -4 -4 -10z"/>
<path d="M1544 1821 c6 -10 25 -20 99 -53 9 -4 17 -4 17 0 0 7 -20 18 -114 61
-5 2 -6 -2 -2 -8z"/>
<path d="M1035 1693 c8 -8 19 -11 25 -8 18 11 11 23 -14 23 -22 0 -23 -2 -11
-15z"/>
<path d="M1560 1560 c0 -5 4 -10 9 -10 6 0 13 5 16 10 3 6 -1 10 -9 10 -9 0
-16 -4 -16 -10z"/>
<path d="M1017 1543 c-16 -15 -1 -147 15 -137 6 4 8 -2 4 -14 -12 -36 44 -202
68 -202 17 -1 49 -31 84 -78 33 -47 106 -102 135 -102 10 0 20 7 23 15 4 8 15
15 26 15 10 0 16 5 13 10 -3 6 1 10 9 10 9 0 16 5 16 11 0 7 9 5 24 -5 29 -18
56 -12 56 14 0 14 5 17 22 12 14 -3 19 -2 14 6 -4 7 -13 12 -21 12 -8 0 -26
11 -41 25 -29 27 -40 30 -49 15 -14 -22 -95 29 -95 60 0 9 -9 25 -20 35 -11
10 -20 28 -20 39 -1 21 -1 21 -15 2 -8 -11 -15 -18 -16 -15 0 2 -2 12 -4 22
-2 10 3 17 12 17 45 0 58 73 19 114 -13 15 -27 26 -31 26 -4 0 -22 15 -41 34
-24 24 -51 38 -98 50 -73 18 -80 19 -89 9z m132 -92 c9 -6 11 -15 6 -27 -8
-18 -8 -18 -13 1 -2 11 -9 23 -16 27 -6 4 -6 8 -1 8 6 0 16 -4 24 -9z m90 -25
c9 -10 8 -15 -4 -20 -10 -4 -15 1 -15 14 0 24 4 25 19 6z m-91 -33 c18 -24 22
-26 38 -13 18 13 18 13 3 -4 -16 -17 -18 -17 -43 -1 -31 21 -44 15 -21 -9 15
-14 15 -16 1 -16 -24 0 -19 -16 15 -44 17 -14 28 -30 25 -35 -7 -10 22 -24 34
-16 11 7 42 -43 35 -55 -3 -6 -2 -10 3 -10 5 0 9 -13 9 -30 0 -25 -3 -28 -15
-17 -13 10 -14 8 -7 -13 7 -23 6 -23 -31 9 -37 33 -123 136 -125 150 -7 68 -6
71 9 69 8 -2 17 3 20 11 3 10 -2 11 -18 6 -15 -5 -20 -4 -16 4 4 6 14 11 22
11 8 0 17 7 20 15 9 22 20 19 42 -12z m109 -39 c-3 -3 -12 -4 -19 -1 -8 3 -5
6 6 6 11 1 17 -2 13 -5z m43 -144 c0 -19 -17 -10 -28 15 -16 36 -15 38 8 15
11 -11 20 -24 20 -30z m150 -100 c21 0 35 -16 22 -24 -12 -7 -62 16 -62 30 0
18 15 27 18 10 2 -9 12 -16 22 -16z m-185 -39 c-2 -2 -11 3 -19 12 -8 8 -12
17 -9 21 3 3 12 -2 19 -12 7 -9 11 -19 9 -21z m100 -1 c3 -5 1 -10 -4 -10 -6
0 -11 5 -11 10 0 6 2 10 4 10 3 0 8 -4 11 -10z m-25 -26 c0 -2 -9 0 -20 6 -11
6 -20 13 -20 16 0 2 9 0 20 -6 11 -6 20 -13 20 -16z"/>
<path d="M1593 1512 c-10 -6 -5 -19 17 -49 21 -29 27 -43 18 -46 -7 -2 -10 -8
-6 -12 12 -12 28 5 28 31 0 14 -6 24 -14 24 -15 0 -30 27 -27 48 2 14 0 14
-16 4z"/>
<path d="M1780 1392 c0 -5 18 -9 41 -10 24 -1 38 2 34 8 -7 12 -75 13 -75 2z"/>
<path d="M1561 1361 c-7 -5 -11 -17 -9 -27 4 -17 5 -17 17 4 14 27 12 35 -8
23z"/>
<path d="M1737 1344 c-8 -8 1 -24 14 -24 5 0 9 7 9 15 0 15 -12 20 -23 9z"/>
<path d="M1615 1330 c-3 -5 1 -10 9 -10 9 0 16 5 16 10 0 6 -4 10 -9 10 -6 0
-13 -4 -16 -10z"/>
<path d="M1802 1310 c-8 -13 -17 -18 -25 -13 -20 12 -57 15 -57 3 0 -5 11 -10
25 -10 14 0 41 -7 60 -14 31 -13 35 -13 35 0 0 13 4 12 30 -3 28 -16 31 -16
46 -1 15 15 15 18 2 31 -8 9 -35 18 -59 22 -38 5 -46 3 -57 -15z m92 -9 c3 -5
-1 -11 -9 -15 -9 -3 -15 0 -15 9 0 16 16 20 24 6z"/>
<path d="M1772 1240 c-10 -16 -10 -20 2 -20 7 0 16 9 19 20 3 11 2 20 -2 20
-3 0 -12 -9 -19 -20z"/>
<path d="M1420 1216 c0 -17 16 -30 23 -19 3 5 -1 14 -9 21 -12 10 -14 10 -14
-2z"/>
<path d="M1665 1201 c-3 -5 -1 -12 5 -16 5 -3 10 1 10 9 0 18 -6 21 -15 7z"/>
<path d="M1735 1200 c-3 -5 -1 -10 4 -10 6 0 11 5 11 10 0 6 -2 10 -4 10 -3 0
-8 -4 -11 -10z"/>
<path d="M1117 1143 c12 -34 55 -103 64 -103 14 0 11 17 -4 23 -7 2 -23 25
-35 51 -23 46 -37 62 -25 29z"/>
<path d="M1990 1130 c0 -5 7 -10 16 -10 8 0 12 5 9 10 -3 6 -10 10 -16 10 -5
0 -9 -4 -9 -10z"/>
<path d="M1606 1001 c-14 -5 -16 -10 -8 -15 7 -4 22 0 34 8 24 17 9 21 -26 7z"/>
<path d="M1655 940 c-3 -5 -1 -10 4 -10 6 0 11 5 11 10 0 6 -2 10 -4 10 -3 0
-8 -4 -11 -10z"/>
<path d="M1705 930 c3 -5 10 -10 16 -10 5 0 9 5 9 10 0 6 -7 10 -16 10 -8 0
-12 -4 -9 -10z"/>
<path d="M1585 921 c-7 -12 12 -24 25 -16 11 7 4 25 -10 25 -5 0 -11 -4 -15
-9z"/>
<path d="M1590 875 c0 -8 4 -15 9 -15 5 0 11 7 15 15 3 9 0 15 -9 15 -8 0 -15
-7 -15 -15z"/>
<path d="M1412 869 c2 -7 10 -15 17 -17 8 -3 12 1 9 9 -2 7 -10 15 -17 17 -8
3 -12 -1 -9 -9z"/>
</g>
</svg>
